<svg viewBox="0 0 100 100" fill="none" xmlns="http://www.w3.org/2000/svg">
  <defs><linearGradient id="bg" x1="0" y1="0" x2="1" y2="1"><stop offset="0%" stop-color="#6366F1"/><stop offset="100%" stop-color="#3B82F6"/></linearGradient></defs>
  <rect width="100" height="100" rx="22" fill="url(#bg)"/>
  <polygon points="50,12 8,30 50,25 92,30" fill="rgba(255,255,255,0.95)"/>
  <polygon points="50,25 92,30 92,34 50,29" fill="rgba(255,255,255,0.48)"/>
  <polygon points="50,25 8,30 8,34 50,29" fill="rgba(255,255,255,0.68)"/>
  <polygon points="8,38 50,33 92,38 50,43" fill="rgba(255,255,255,0.90)"/>
  <polygon points="8,38 50,43 50,46 8,41" fill="rgba(255,255,255,0.58)"/>
  <polygon points="50,43 92,38 92,41 50,46" fill="rgba(255,255,255,0.40)"/>
  <polygon points="8,52 50,47 92,52 50,57" fill="rgba(255,255,255,0.70)"/>
  <polygon points="8,52 50,57 50,60 8,55" fill="rgba(255,255,255,0.45)"/>
  <polygon points="50,57 92,52 92,55 50,60" fill="rgba(255,255,255,0.28)"/>
  <polygon points="8,66 50,61 92,66 50,71" fill="rgba(255,255,255,0.50)"/>
  <polygon points="8,66 50,71 50,74 8,69" fill="rgba(255,255,255,0.32)"/>
  <polygon points="50,71 92,66 92,69 50,74" fill="rgba(255,255,255,0.18)"/>
  <polygon points="8,80 50,75 92,80 50,85" fill="rgba(255,255,255,0.34)"/>
  <polygon points="8,80 50,85 50,88 8,83" fill="rgba(255,255,255,0.20)"/>
  <polygon points="50,85 92,80 92,83 50,88" fill="rgba(255,255,255,0.10)"/>
</svg>
